<?xml version="1.0" encoding="utf-8" standalone="no"?>
<!DOCTYPE svg PUBLIC "-//W3C//DTD SVG 1.1//EN"
  "http://www.w3.org/Graphics/SVG/1.1/DTD/svg11.dtd">
<svg xmlns:xlink="http://www.w3.org/1999/xlink" width="460.8pt" height="363.879454pt" viewBox="0 0 460.8 363.879454" xmlns="http://www.w3.org/2000/svg" version="1.1">
 <metadata>
  <rdf:RDF xmlns:dc="http://purl.org/dc/elements/1.1/" xmlns:cc="http://creativecommons.org/ns#" xmlns:rdf="http://www.w3.org/1999/02/22-rdf-syntax-ns#">
   <cc:Work>
    <dc:type rdf:resource="http://purl.org/dc/dcmitype/StillImage"/>
    <dc:date>2025-12-03T10:53:18.781683</dc:date>
    <dc:format>image/svg+xml</dc:format>
    <dc:creator>
     <cc:Agent>
      <dc:title>Matplotlib v3.10.7, https://matplotlib.org/</dc:title>
     </cc:Agent>
    </dc:creator>
   </cc:Work>
  </rdf:RDF>
 </metadata>
 <defs>
  <style type="text/css">*{stroke-linejoin: round; stroke-linecap: butt}</style>
 </defs>
 <g id="figure_1">
  <g id="patch_1">
   <path d="M 0 363.879454 
L 460.8 363.879454 
L 460.8 0 
L 0 0 
L 0 363.879454 
z
" style="fill: none"/>
  </g>
  <g id="axes_1">
   <g id="patch_2">
    <path d="M 117.127327 105.986864 
C 107.678427 117.247625 100.007952 129.888178 94.382552 143.469095 
C 88.757152 157.050013 85.242778 171.412079 83.9616 186.056021 
C 82.680422 200.699963 83.64746 215.454101 86.829098 229.805534 
C 90.010735 244.156968 95.369672 257.937445 102.719613 270.667913 
C 110.069555 283.398381 119.324333 294.929592 130.162223 304.860685 
C 141.000112 314.791778 153.294054 323.006324 166.61667 329.218759 
C 179.939286 335.431193 194.134389 339.568685 208.708509 341.487401 
C 223.282629 343.406117 238.064906 343.083563 252.541461 340.530951 
C 267.018015 337.97834 281.019129 333.225598 294.05808 326.437945 
C 307.09703 319.650292 319.020952 310.907305 329.415333 300.512917 
C 339.809714 290.118529 348.552694 278.194601 355.340338 265.155646 
C 362.127982 252.116692 366.880715 238.115574 369.433316 223.639018 
C 371.985918 209.162462 372.308462 194.380184 370.389737 179.806065 
C 368.471011 165.231946 364.33351 151.036847 358.121066 137.714235 
C 351.908623 124.391623 343.694069 112.097687 333.762969 101.259804 
C 323.831869 90.421921 312.300651 81.16715 299.570178 73.817217 
L 227.517909 198.615561 
z
" style="fill: #173518; opacity: 0.5; stroke: #173518; stroke-linejoin: miter"/>
   </g>
   <g id="patch_3">
    <path d="M 297.067831 59.625685 
C 267.734396 42.690035 233.348735 36.626929 199.991995 42.508637 
C 166.635255 48.390338 136.397018 65.848398 114.624953 91.795339 
L 225.015552 184.424023 
z
" style="fill: #491410; opacity: 0.5; stroke: #491410; stroke-linejoin: miter"/>
   </g>
   <g id="patch_4">
    <path d="M 120.009421 103.104771 
C 110.56052 114.365532 102.890045 127.006084 97.264645 140.587002 
C 91.639245 154.16792 88.124871 168.529986 86.843693 183.173928 
C 85.562515 197.81787 86.529554 212.572008 89.711191 226.923441 
C 92.892829 241.274874 98.251765 255.055352 105.601707 267.78582 
C 112.951648 280.516288 122.206427 292.047499 133.044316 301.978592 
C 143.882206 311.909684 156.176147 320.12423 169.498763 326.336665 
C 182.82138 332.5491 197.016482 336.686592 211.590602 338.605307 
C 226.164722 340.524023 240.947 340.201469 255.423554 337.648858 
C 269.900109 335.096247 283.901223 330.343505 296.940173 323.555852 
C 309.979123 316.768199 321.903046 308.025211 332.297427 297.630824 
C 342.691808 287.236436 351.434787 275.312507 358.222431 262.273553 
C 365.010075 249.234598 369.762808 235.233481 372.31541 220.756924 
C 374.868011 206.280368 375.190556 191.498091 373.27183 176.923972 
C 371.353104 162.349853 367.215603 148.154754 361.00316 134.832141 
C 354.790716 121.509529 346.576162 109.215593 336.645062 98.37771 
C 326.713962 87.539827 315.182745 78.285056 302.452272 70.935124 
L 230.400003 195.733468 
z
" style="fill: #4caf50"/>
   </g>
   <g id="patch_5">
    <path d="M 299.949925 56.743591 
C 270.61649 39.807942 236.230828 33.744835 202.874088 39.626544 
C 169.517349 45.508244 139.279112 62.966304 117.507046 88.913246 
L 227.897645 181.541929 
z
" style="fill: #f44336"/>
   </g>
   <g id="matplotlib.axis_1"/>
   <g id="matplotlib.axis_2"/>
   <g id="text_1">
    <!-- Implemented -->
    <g transform="translate(257.925939 354.599767) scale(0.1 -0.1)">
     <defs>
      <path id="DejaVuSans-49" d="M 628 4666 
L 1259 4666 
L 1259 0 
L 628 0 
L 628 4666 
z
" transform="scale(0.015625)"/>
      <path id="DejaVuSans-6d" d="M 3328 2828 
Q 3544 3216 3844 3400 
Q 4144 3584 4550 3584 
Q 5097 3584 5394 3201 
Q 5691 2819 5691 2113 
L 5691 0 
L 5113 0 
L 5113 2094 
Q 5113 2597 4934 2840 
Q 4756 3084 4391 3084 
Q 3944 3084 3684 2787 
Q 3425 2491 3425 1978 
L 3425 0 
L 2847 0 
L 2847 2094 
Q 2847 2600 2669 2842 
Q 2491 3084 2119 3084 
Q 1678 3084 1418 2786 
Q 1159 2488 1159 1978 
L 1159 0 
L 581 0 
L 581 3500 
L 1159 3500 
L 1159 2956 
Q 1356 3278 1631 3431 
Q 1906 3584 2284 3584 
Q 2666 3584 2933 3390 
Q 3200 3197 3328 2828 
z
" transform="scale(0.015625)"/>
      <path id="DejaVuSans-70" d="M 1159 525 
L 1159 -1331 
L 581 -1331 
L 581 3500 
L 1159 3500 
L 1159 2969 
Q 1341 3281 1617 3432 
Q 1894 3584 2278 3584 
Q 2916 3584 3314 3078 
Q 3713 2572 3713 1747 
Q 3713 922 3314 415 
Q 2916 -91 2278 -91 
Q 1894 -91 1617 61 
Q 1341 213 1159 525 
z
M 3116 1747 
Q 3116 2381 2855 2742 
Q 2594 3103 2138 3103 
Q 1681 3103 1420 2742 
Q 1159 2381 1159 1747 
Q 1159 1113 1420 752 
Q 1681 391 2138 391 
Q 2594 391 2855 752 
Q 3116 1113 3116 1747 
z
" transform="scale(0.015625)"/>
      <path id="DejaVuSans-6c" d="M 603 4863 
L 1178 4863 
L 1178 0 
L 603 0 
L 603 4863 
z
" transform="scale(0.015625)"/>
      <path id="DejaVuSans-65" d="M 3597 1894 
L 3597 1613 
L 953 1613 
Q 991 1019 1311 708 
Q 1631 397 2203 397 
Q 2534 397 2845 478 
Q 3156 559 3463 722 
L 3463 178 
Q 3153 47 2828 -22 
Q 2503 -91 2169 -91 
Q 1331 -91 842 396 
Q 353 884 353 1716 
Q 353 2575 817 3079 
Q 1281 3584 2069 3584 
Q 2775 3584 3186 3129 
Q 3597 2675 3597 1894 
z
M 3022 2063 
Q 3016 2534 2758 2815 
Q 2500 3097 2075 3097 
Q 1594 3097 1305 2825 
Q 1016 2553 972 2059 
L 3022 2063 
z
" transform="scale(0.015625)"/>
      <path id="DejaVuSans-6e" d="M 3513 2113 
L 3513 0 
L 2938 0 
L 2938 2094 
Q 2938 2591 2744 2837 
Q 2550 3084 2163 3084 
Q 1697 3084 1428 2787 
Q 1159 2491 1159 1978 
L 1159 0 
L 581 0 
L 581 3500 
L 1159 3500 
L 1159 2956 
Q 1366 3272 1645 3428 
Q 1925 3584 2291 3584 
Q 2894 3584 3203 3211 
Q 3513 2838 3513 2113 
z
" transform="scale(0.015625)"/>
      <path id="DejaVuSans-74" d="M 1172 4494 
L 1172 3500 
L 2356 3500 
L 2356 3053 
L 1172 3053 
L 1172 1153 
Q 1172 725 1289 603 
Q 1406 481 1766 481 
L 2356 481 
L 2356 0 
L 1766 0 
Q 1100 0 847 248 
Q 594 497 594 1153 
L 594 3053 
L 172 3053 
L 172 3500 
L 594 3500 
L 594 4494 
L 1172 4494 
z
" transform="scale(0.015625)"/>
      <path id="DejaVuSans-64" d="M 2906 2969 
L 2906 4863 
L 3481 4863 
L 3481 0 
L 2906 0 
L 2906 525 
Q 2725 213 2448 61 
Q 2172 -91 1784 -91 
Q 1150 -91 751 415 
Q 353 922 353 1747 
Q 353 2572 751 3078 
Q 1150 3584 1784 3584 
Q 2172 3584 2448 3432 
Q 2725 3281 2906 2969 
z
M 947 1747 
Q 947 1113 1208 752 
Q 1469 391 1925 391 
Q 2381 391 2643 752 
Q 2906 1113 2906 1747 
Q 2906 2381 2643 2742 
Q 2381 3103 1925 3103 
Q 1469 3103 1208 2742 
Q 947 2381 947 1747 
z
" transform="scale(0.015625)"/>
     </defs>
     <use xlink:href="#DejaVuSans-49"/>
     <use xlink:href="#DejaVuSans-6d" transform="translate(29.492188 0)"/>
     <use xlink:href="#DejaVuSans-70" transform="translate(126.904297 0)"/>
     <use xlink:href="#DejaVuSans-6c" transform="translate(190.380859 0)"/>
     <use xlink:href="#DejaVuSans-65" transform="translate(218.164062 0)"/>
     <use xlink:href="#DejaVuSans-6d" transform="translate(279.6875 0)"/>
     <use xlink:href="#DejaVuSans-65" transform="translate(377.099609 0)"/>
     <use xlink:href="#DejaVuSans-6e" transform="translate(438.623047 0)"/>
     <use xlink:href="#DejaVuSans-74" transform="translate(502.001953 0)"/>
     <use xlink:href="#DejaVuSans-65" transform="translate(541.210938 0)"/>
     <use xlink:href="#DejaVuSans-64" transform="translate(602.734375 0)"/>
    </g>
   </g>
   <g id="text_2">
    <!-- 77.8% -->
    <g transform="translate(229.530556 283.642074) scale(0.1 -0.1)">
     <defs>
      <path id="DejaVuSans-37" d="M 525 4666 
L 3525 4666 
L 3525 4397 
L 1831 0 
L 1172 0 
L 2766 4134 
L 525 4134 
L 525 4666 
z
" transform="scale(0.015625)"/>
      <path id="DejaVuSans-2e" d="M 684 794 
L 1344 794 
L 1344 0 
L 684 0 
L 684 794 
z
" transform="scale(0.015625)"/>
      <path id="DejaVuSans-38" d="M 2034 2216 
Q 1584 2216 1326 1975 
Q 1069 1734 1069 1313 
Q 1069 891 1326 650 
Q 1584 409 2034 409 
Q 2484 409 2743 651 
Q 3003 894 3003 1313 
Q 3003 1734 2745 1975 
Q 2488 2216 2034 2216 
z
M 1403 2484 
Q 997 2584 770 2862 
Q 544 3141 544 3541 
Q 544 4100 942 4425 
Q 1341 4750 2034 4750 
Q 2731 4750 3128 4425 
Q 3525 4100 3525 3541 
Q 3525 3141 3298 2862 
Q 3072 2584 2669 2484 
Q 3125 2378 3379 2068 
Q 3634 1759 3634 1313 
Q 3634 634 3220 271 
Q 2806 -91 2034 -91 
Q 1263 -91 848 271 
Q 434 634 434 1313 
Q 434 1759 690 2068 
Q 947 2378 1403 2484 
z
M 1172 3481 
Q 1172 3119 1398 2916 
Q 1625 2713 2034 2713 
Q 2441 2713 2670 2916 
Q 2900 3119 2900 3481 
Q 2900 3844 2670 4047 
Q 2441 4250 2034 4250 
Q 1625 4250 1398 4047 
Q 1172 3844 1172 3481 
z
" transform="scale(0.015625)"/>
      <path id="DejaVuSans-25" d="M 4653 2053 
Q 4381 2053 4226 1822 
Q 4072 1591 4072 1178 
Q 4072 772 4226 539 
Q 4381 306 4653 306 
Q 4919 306 5073 539 
Q 5228 772 5228 1178 
Q 5228 1588 5073 1820 
Q 4919 2053 4653 2053 
z
M 4653 2450 
Q 5147 2450 5437 2106 
Q 5728 1763 5728 1178 
Q 5728 594 5436 251 
Q 5144 -91 4653 -91 
Q 4153 -91 3862 251 
Q 3572 594 3572 1178 
Q 3572 1766 3864 2108 
Q 4156 2450 4653 2450 
z
M 1428 4353 
Q 1159 4353 1004 4120 
Q 850 3888 850 3481 
Q 850 3069 1003 2837 
Q 1156 2606 1428 2606 
Q 1700 2606 1854 2837 
Q 2009 3069 2009 3481 
Q 2009 3884 1853 4118 
Q 1697 4353 1428 4353 
z
M 4250 4750 
L 4750 4750 
L 1831 -91 
L 1331 -91 
L 4250 4750 
z
M 1428 4750 
Q 1922 4750 2215 4408 
Q 2509 4066 2509 3481 
Q 2509 2891 2217 2550 
Q 1925 2209 1428 2209 
Q 931 2209 642 2551 
Q 353 2894 353 3481 
Q 353 4063 643 4406 
Q 934 4750 1428 4750 
z
" transform="scale(0.015625)"/>
     </defs>
     <use xlink:href="#DejaVuSans-37"/>
     <use xlink:href="#DejaVuSans-37" transform="translate(63.623047 0)"/>
     <use xlink:href="#DejaVuSans-2e" transform="translate(127.246094 0)"/>
     <use xlink:href="#DejaVuSans-38" transform="translate(159.033203 0)"/>
     <use xlink:href="#DejaVuSans-25" transform="translate(222.65625 0)"/>
    </g>
   </g>
   <g id="text_3">
    <!-- Not Implemented -->
    <g transform="translate(113.049709 28.194402) scale(0.1 -0.1)">
     <defs>
      <path id="DejaVuSans-4e" d="M 628 4666 
L 1478 4666 
L 3547 763 
L 3547 4666 
L 4159 4666 
L 4159 0 
L 3309 0 
L 1241 3903 
L 1241 0 
L 628 0 
L 628 4666 
z
" transform="scale(0.015625)"/>
      <path id="DejaVuSans-6f" d="M 1959 3097 
Q 1497 3097 1228 2736 
Q 959 2375 959 1747 
Q 959 1119 1226 758 
Q 1494 397 1959 397 
Q 2419 397 2687 759 
Q 2956 1122 2956 1747 
Q 2956 2369 2687 2733 
Q 2419 3097 1959 3097 
z
M 1959 3584 
Q 2709 3584 3137 3096 
Q 3566 2609 3566 1747 
Q 3566 888 3137 398 
Q 2709 -91 1959 -91 
Q 1206 -91 779 398 
Q 353 888 353 1747 
Q 353 2609 779 3096 
Q 1206 3584 1959 3584 
z
" transform="scale(0.015625)"/>
      <path id="DejaVuSans-20" transform="scale(0.015625)"/>
     </defs>
     <use xlink:href="#DejaVuSans-4e"/>
     <use xlink:href="#DejaVuSans-6f" transform="translate(74.804688 0)"/>
     <use xlink:href="#DejaVuSans-74" transform="translate(135.986328 0)"/>
     <use xlink:href="#DejaVuSans-20" transform="translate(175.195312 0)"/>
     <use xlink:href="#DejaVuSans-49" transform="translate(206.982422 0)"/>
     <use xlink:href="#DejaVuSans-6d" transform="translate(236.474609 0)"/>
     <use xlink:href="#DejaVuSans-70" transform="translate(333.886719 0)"/>
     <use xlink:href="#DejaVuSans-6c" transform="translate(397.363281 0)"/>
     <use xlink:href="#DejaVuSans-65" transform="translate(425.146484 0)"/>
     <use xlink:href="#DejaVuSans-6d" transform="translate(486.669922 0)"/>
     <use xlink:href="#DejaVuSans-65" transform="translate(584.082031 0)"/>
     <use xlink:href="#DejaVuSans-6e" transform="translate(645.605469 0)"/>
     <use xlink:href="#DejaVuSans-74" transform="translate(708.984375 0)"/>
     <use xlink:href="#DejaVuSans-65" transform="translate(748.193359 0)"/>
     <use xlink:href="#DejaVuSans-64" transform="translate(809.716797 0)"/>
    </g>
   </g>
   <g id="text_4">
    <!-- 22.2% -->
    <g transform="translate(196.999836 99.152085) scale(0.1 -0.1)">
     <defs>
      <path id="DejaVuSans-32" d="M 1228 531 
L 3431 531 
L 3431 0 
L 469 0 
L 469 531 
Q 828 903 1448 1529 
Q 2069 2156 2228 2338 
Q 2531 2678 2651 2914 
Q 2772 3150 2772 3378 
Q 2772 3750 2511 3984 
Q 2250 4219 1831 4219 
Q 1534 4219 1204 4116 
Q 875 4013 500 3803 
L 500 4441 
Q 881 4594 1212 4672 
Q 1544 4750 1819 4750 
Q 2544 4750 2975 4387 
Q 3406 4025 3406 3419 
Q 3406 3131 3298 2873 
Q 3191 2616 2906 2266 
Q 2828 2175 2409 1742 
Q 1991 1309 1228 531 
z
" transform="scale(0.015625)"/>
     </defs>
     <use xlink:href="#DejaVuSans-32"/>
     <use xlink:href="#DejaVuSans-32" transform="translate(63.623047 0)"/>
     <use xlink:href="#DejaVuSans-2e" transform="translate(127.246094 0)"/>
     <use xlink:href="#DejaVuSans-32" transform="translate(159.033203 0)"/>
     <use xlink:href="#DejaVuSans-25" transform="translate(222.65625 0)"/>
    </g>
   </g>
   <g id="text_5">
    <!-- Implementation Status: 77.78% Implemented -->
    <g transform="translate(93.045 16.318125) scale(0.12 -0.12)">
     <defs>
      <path id="DejaVuSans-61" d="M 2194 1759 
Q 1497 1759 1228 1600 
Q 959 1441 959 1056 
Q 959 750 1161 570 
Q 1363 391 1709 391 
Q 2188 391 2477 730 
Q 2766 1069 2766 1631 
L 2766 1759 
L 2194 1759 
z
M 3341 1997 
L 3341 0 
L 2766 0 
L 2766 531 
Q 2569 213 2275 61 
Q 1981 -91 1556 -91 
Q 1019 -91 701 211 
Q 384 513 384 1019 
Q 384 1609 779 1909 
Q 1175 2209 1959 2209 
L 2766 2209 
L 2766 2266 
Q 2766 2663 2505 2880 
Q 2244 3097 1772 3097 
Q 1472 3097 1187 3025 
Q 903 2953 641 2809 
L 641 3341 
Q 956 3463 1253 3523 
Q 1550 3584 1831 3584 
Q 2591 3584 2966 3190 
Q 3341 2797 3341 1997 
z
" transform="scale(0.015625)"/>
      <path id="DejaVuSans-69" d="M 603 3500 
L 1178 3500 
L 1178 0 
L 603 0 
L 603 3500 
z
M 603 4863 
L 1178 4863 
L 1178 4134 
L 603 4134 
L 603 4863 
z
" transform="scale(0.015625)"/>
      <path id="DejaVuSans-53" d="M 3425 4513 
L 3425 3897 
Q 3066 4069 2747 4153 
Q 2428 4238 2131 4238 
Q 1616 4238 1336 4038 
Q 1056 3838 1056 3469 
Q 1056 3159 1242 3001 
Q 1428 2844 1947 2747 
L 2328 2669 
Q 3034 2534 3370 2195 
Q 3706 1856 3706 1288 
Q 3706 609 3251 259 
Q 2797 -91 1919 -91 
Q 1588 -91 1214 -16 
Q 841 59 441 206 
L 441 856 
Q 825 641 1194 531 
Q 1563 422 1919 422 
Q 2459 422 2753 634 
Q 3047 847 3047 1241 
Q 3047 1584 2836 1778 
Q 2625 1972 2144 2069 
L 1759 2144 
Q 1053 2284 737 2584 
Q 422 2884 422 3419 
Q 422 4038 858 4394 
Q 1294 4750 2059 4750 
Q 2388 4750 2728 4690 
Q 3069 4631 3425 4513 
z
" transform="scale(0.015625)"/>
      <path id="DejaVuSans-75" d="M 544 1381 
L 544 3500 
L 1119 3500 
L 1119 1403 
Q 1119 906 1312 657 
Q 1506 409 1894 409 
Q 2359 409 2629 706 
Q 2900 1003 2900 1516 
L 2900 3500 
L 3475 3500 
L 3475 0 
L 2900 0 
L 2900 538 
Q 2691 219 2414 64 
Q 2138 -91 1772 -91 
Q 1169 -91 856 284 
Q 544 659 544 1381 
z
M 1991 3584 
L 1991 3584 
z
" transform="scale(0.015625)"/>
      <path id="DejaVuSans-73" d="M 2834 3397 
L 2834 2853 
Q 2591 2978 2328 3040 
Q 2066 3103 1784 3103 
Q 1356 3103 1142 2972 
Q 928 2841 928 2578 
Q 928 2378 1081 2264 
Q 1234 2150 1697 2047 
L 1894 2003 
Q 2506 1872 2764 1633 
Q 3022 1394 3022 966 
Q 3022 478 2636 193 
Q 2250 -91 1575 -91 
Q 1294 -91 989 -36 
Q 684 19 347 128 
L 347 722 
Q 666 556 975 473 
Q 1284 391 1588 391 
Q 1994 391 2212 530 
Q 2431 669 2431 922 
Q 2431 1156 2273 1281 
Q 2116 1406 1581 1522 
L 1381 1569 
Q 847 1681 609 1914 
Q 372 2147 372 2553 
Q 372 3047 722 3315 
Q 1072 3584 1716 3584 
Q 2034 3584 2315 3537 
Q 2597 3491 2834 3397 
z
" transform="scale(0.015625)"/>
      <path id="DejaVuSans-3a" d="M 750 794 
L 1409 794 
L 1409 0 
L 750 0 
L 750 794 
z
M 750 3309 
L 1409 3309 
L 1409 2516 
L 750 2516 
L 750 3309 
z
" transform="scale(0.015625)"/>
     </defs>
     <use xlink:href="#DejaVuSans-49"/>
     <use xlink:href="#DejaVuSans-6d" transform="translate(29.492188 0)"/>
     <use xlink:href="#DejaVuSans-70" transform="translate(126.904297 0)"/>
     <use xlink:href="#DejaVuSans-6c" transform="translate(190.380859 0)"/>
     <use xlink:href="#DejaVuSans-65" transform="translate(218.164062 0)"/>
     <use xlink:href="#DejaVuSans-6d" transform="translate(279.6875 0)"/>
     <use xlink:href="#DejaVuSans-65" transform="translate(377.099609 0)"/>
     <use xlink:href="#DejaVuSans-6e" transform="translate(438.623047 0)"/>
     <use xlink:href="#DejaVuSans-74" transform="translate(502.001953 0)"/>
     <use xlink:href="#DejaVuSans-61" transform="translate(541.210938 0)"/>
     <use xlink:href="#DejaVuSans-74" transform="translate(602.490234 0)"/>
     <use xlink:href="#DejaVuSans-69" transform="translate(641.699219 0)"/>
     <use xlink:href="#DejaVuSans-6f" transform="translate(669.482422 0)"/>
     <use xlink:href="#DejaVuSans-6e" transform="translate(730.664062 0)"/>
     <use xlink:href="#DejaVuSans-20" transform="translate(794.042969 0)"/>
     <use xlink:href="#DejaVuSans-53" transform="translate(825.830078 0)"/>
     <use xlink:href="#DejaVuSans-74" transform="translate(889.306641 0)"/>
     <use xlink:href="#DejaVuSans-61" transform="translate(928.515625 0)"/>
     <use xlink:href="#DejaVuSans-74" transform="translate(989.794922 0)"/>
     <use xlink:href="#DejaVuSans-75" transform="translate(1029.003906 0)"/>
     <use xlink:href="#DejaVuSans-73" transform="translate(1092.382812 0)"/>
     <use xlink:href="#DejaVuSans-3a" transform="translate(1144.482422 0)"/>
     <use xlink:href="#DejaVuSans-20" transform="translate(1178.173828 0)"/>
     <use xlink:href="#DejaVuSans-37" transform="translate(1209.960938 0)"/>
     <use xlink:href="#DejaVuSans-37" transform="translate(1273.583984 0)"/>
     <use xlink:href="#DejaVuSans-2e" transform="translate(1337.207031 0)"/>
     <use xlink:href="#DejaVuSans-37" transform="translate(1368.994141 0)"/>
     <use xlink:href="#DejaVuSans-38" transform="translate(1432.617188 0)"/>
     <use xlink:href="#DejaVuSans-25" transform="translate(1496.240234 0)"/>
     <use xlink:href="#DejaVuSans-20" transform="translate(1591.259766 0)"/>
     <use xlink:href="#DejaVuSans-49" transform="translate(1623.046875 0)"/>
     <use xlink:href="#DejaVuSans-6d" transform="translate(1652.539062 0)"/>
     <use xlink:href="#DejaVuSans-70" transform="translate(1749.951172 0)"/>
     <use xlink:href="#DejaVuSans-6c" transform="translate(1813.427734 0)"/>
     <use xlink:href="#DejaVuSans-65" transform="translate(1841.210938 0)"/>
     <use xlink:href="#DejaVuSans-6d" transform="translate(1902.734375 0)"/>
     <use xlink:href="#DejaVuSans-65" transform="translate(2000.146484 0)"/>
     <use xlink:href="#DejaVuSans-6e" transform="translate(2061.669922 0)"/>
     <use xlink:href="#DejaVuSans-74" transform="translate(2125.048828 0)"/>
     <use xlink:href="#DejaVuSans-65" transform="translate(2164.257812 0)"/>
     <use xlink:href="#DejaVuSans-64" transform="translate(2225.78125 0)"/>
    </g>
   </g>
  </g>
 </g>
</svg>
